<svg width="25" height="24" viewBox="0 0 25 24" fill="none" xmlns="http://www.w3.org/2000/svg">
<g clip-path="url(#clip0_9627:1602)">
<path d="M12.5 0C9.3174 0 6.26515 1.26428 4.01472 3.51472C1.76428 5.76515 0.5 8.8174 0.5 12C0.5 15.1826 1.76428 18.2348 4.01472 20.4853C6.26515 22.7357 9.3174 24 12.5 24C15.6826 24 18.7348 22.7357 20.9853 20.4853C23.2357 18.2348 24.5 15.1826 24.5 12C24.5 8.8174 23.2357 5.76515 20.9853 3.51472C18.7348 1.26428 15.6826 0 12.5 0V0ZM15.663 21.783H15.57C15.5001 21.7869 15.4302 21.7766 15.3645 21.7525C15.2988 21.7284 15.2388 21.6912 15.188 21.643C15.1411 21.5934 15.1045 21.535 15.0805 21.4711C15.0565 21.4072 15.0454 21.3392 15.048 21.271V19.865C15.054 19.398 15.058 18.925 15.058 18.449C15.0564 18.1009 15.0055 17.7548 14.907 17.421C14.8137 17.0835 14.6256 16.7799 14.365 16.546C15.062 16.4787 15.7472 16.3204 16.403 16.075C16.9562 15.8646 17.4566 15.5356 17.869 15.111C18.276 14.684 18.579 14.168 18.754 13.605C18.9669 12.9155 19.0682 12.1965 19.054 11.475C19.0579 10.9713 18.9698 10.4711 18.794 9.999C18.6154 9.5232 18.3453 9.08699 17.999 8.715C18.0738 8.52739 18.1281 8.33226 18.161 8.133C18.194 7.933 18.211 7.731 18.211 7.529C18.211 7.269 18.181 7.009 18.121 6.756C18.0665 6.4965 17.9926 6.24146 17.9 5.993C17.8646 5.97921 17.8269 5.97242 17.789 5.973H17.679C17.449 5.975 17.223 6.013 17.005 6.084C16.7649 6.15409 16.53 6.24097 16.302 6.344C16.0753 6.44561 15.8546 6.56013 15.641 6.687C15.426 6.814 15.236 6.936 15.068 7.049C13.3857 6.58013 11.6073 6.58013 9.925 7.049C9.73739 6.92357 9.54666 6.80287 9.353 6.687C9.13636 6.55907 8.91192 6.44485 8.681 6.345C8.45366 6.23856 8.21785 6.15126 7.976 6.084C7.7623 6.0134 7.53904 5.97597 7.314 5.973H7.204C7.16638 5.97247 7.12902 5.97926 7.094 5.993C7.00006 6.2418 6.92322 6.49673 6.864 6.756C6.81 7.01 6.784 7.269 6.783 7.529C6.783 7.731 6.8 7.933 6.834 8.133C6.867 8.332 6.92 8.527 6.994 8.715C6.64859 9.08748 6.37952 9.52404 6.202 10C6.02528 10.4719 5.93615 10.9721 5.939 11.476C5.92501 12.1936 6.02354 12.9089 6.231 13.596C6.412 14.159 6.714 14.676 7.115 15.112C7.53 15.534 8.03 15.862 8.581 16.076C9.234 16.326 9.918 16.486 10.614 16.552C10.4197 16.7281 10.2655 16.944 10.162 17.185C10.0635 17.4233 9.9963 17.6734 9.962 17.929C9.59508 18.1047 9.1938 18.1969 8.787 18.199C8.40921 18.2141 8.03635 18.1091 7.722 17.899C7.42044 17.6755 7.16506 17.3957 6.97 17.075C6.8827 16.9403 6.78508 16.8126 6.678 16.693C6.56504 16.5672 6.44049 16.4524 6.306 16.35C6.17344 16.2509 6.02813 16.1702 5.874 16.11C5.72235 16.0435 5.55858 16.0091 5.393 16.009C5.353 16.01 5.313 16.014 5.273 16.019C5.21837 16.0188 5.16394 16.0255 5.111 16.039C5.06447 16.0512 5.02046 16.0715 4.981 16.099C4.96306 16.1089 4.94806 16.1233 4.93752 16.1409C4.92698 16.1585 4.92128 16.1785 4.921 16.199C4.9252 16.2471 4.93992 16.2937 4.96411 16.3356C4.9883 16.3774 5.02137 16.4134 5.061 16.441C5.154 16.515 5.231 16.572 5.293 16.612L5.323 16.633C5.456 16.736 5.584 16.847 5.705 16.966C5.817 17.064 5.918 17.175 6.005 17.296C6.095 17.415 6.173 17.542 6.236 17.677C6.309 17.811 6.386 17.965 6.467 18.14C6.655 18.614 6.989 19.015 7.421 19.285C7.874 19.528 8.382 19.649 8.897 19.636C9.071 19.636 9.246 19.626 9.419 19.606C9.591 19.578 9.762 19.549 9.934 19.515V21.258C9.93711 21.3283 9.92536 21.3984 9.89951 21.4638C9.87366 21.5293 9.8343 21.5885 9.78399 21.6377C9.73369 21.6869 9.67357 21.7249 9.60758 21.7492C9.54158 21.7736 9.47119 21.7837 9.401 21.779H9.339C7.00704 21.0257 5.02066 19.4645 3.73757 17.3766C2.45447 15.2887 1.95897 12.8114 2.34028 10.3906C2.7216 7.9698 3.95467 5.7647 5.81747 4.17236C7.68027 2.58002 10.0504 1.70507 12.501 1.70507C14.9516 1.70507 17.3217 2.58002 19.1845 4.17236C21.0473 5.7647 22.2804 7.9698 22.6617 10.3906C23.043 12.8114 22.5475 15.2887 21.2644 17.3766C19.9813 19.4645 17.995 21.0257 15.663 21.779V21.784V21.783Z" fill="#F8F8F8"/>
</g>
<defs>
<clipPath id="clip0_9627:1602">
<rect width="24" height="24" fill="white" transform="translate(0.5)"/>
</clipPath>
</defs>
</svg>
